<?xml version="1.0" encoding="UTF-8" standalone="no"?>
<!DOCTYPE svg PUBLIC "-//W3C//DTD SVG 1.1//EN" "http://www.w3.org/Graphics/SVG/1.1/DTD/svg11.dtd">
<svg width="100%" height="100%" viewBox="0 0 32 36" version="1.1" xmlns="http://www.w3.org/2000/svg" xmlns:xlink="http://www.w3.org/1999/xlink" xml:space="preserve" xmlns:serif="http://www.serif.com/" style="fill-rule:evenodd;clip-rule:evenodd;stroke-linejoin:round;stroke-miterlimit:2;">
    <g transform="matrix(1,0,0,1,-62,0)">
        <g id="Symbols">
            <g id="button---small---stepper---2" serif:id="button-/-small-/-stepper---2">
                <path id="shadow" d="M94,12C94,5.377 88.623,0 82,0L12,0C5.377,0 0,5.377 0,12L0,24C0,30.623 5.377,36 12,36L82,36C88.623,36 94,30.623 94,24L94,12Z" style="fill:none;"/>
                <g id="bg">
                </g>
                <g id="plus" transform="matrix(1,0,0,1,1,0)">
                    <path d="M76.5,10.5C77.328,10.5 78,11.172 78,12L78,16.5L82.5,16.5C83.328,16.5 84,17.172 84,18C84,18.828 83.328,19.5 82.5,19.5L78,19.5L78,24C78,24.828 77.328,25.5 76.5,25.5C75.672,25.5 75,24.828 75,24L75,19.5L70.5,19.5C69.672,19.5 69,18.828 69,18C69,17.172 69.672,16.5 70.5,16.5L75,16.5L75,12C75,11.172 75.672,10.5 76.5,10.5Z" style="fill:rgb(24,25,31);"/>
                </g>
            </g>
        </g>
    </g>
</svg>
