<?xml version="1.0" encoding="UTF-8"?>
<svg width="26px" height="26px" viewBox="0 0 26 26" version="1.1" xmlns="http://www.w3.org/2000/svg" xmlns:xlink="http://www.w3.org/1999/xlink">
    <title>shopping-cart</title>
    <g id="Symbols" stroke="none" stroke-width="1" fill="none" fill-rule="evenodd">
        <g id="Screen-title-/-Normal-Title---Back" transform="translate(-320.000000, -13.000000)">
            <rect id="Rectangle" fill="#FFFFFF" x="0" y="0" width="375" height="118"></rect>
            <g id="shopping-cart" transform="translate(320.000000, 13.000000)" fill="#000000" fill-rule="nonzero">
                <path d="M18.7777778,23.1111111 C18.7777778,24.7057778 20.0691111,26 21.6666667,26 C23.2613333,26 24.5555556,24.7057778 24.5555556,23.1111111 C24.5555556,21.5135556 23.2613333,20.2222222 21.6666667,20.2222222 C20.0691111,20.2222222 18.7777778,21.5135556 18.7777778,23.1111111 Z M4.33333333,23.1111111 C4.33333333,24.7057778 5.62611111,26 7.22222222,26 C8.81544444,26 10.1111111,24.7057778 10.1111111,23.1111111 C10.1111111,21.5135556 8.81544444,20.2222222 7.22222222,20.2222222 C5.62611111,20.2222222 4.33333333,21.5135556 4.33333333,23.1111111 Z M9.45677778,16.1373333 L25.4438889,11.57 C25.7486667,11.4818889 26,11.1525556 26,10.8333333 L26,2.88888889 L5.77777778,2.88888889 L5.77777778,0.577777778 C5.77777778,0.26 5.51633333,0 5.20144444,0 L0.576333333,0 C0.26,0 0,0.26 0,0.577777778 L0,2.88888889 L2.88888889,2.88888889 L5.64777778,15.8267778 L5.77777778,17.1888889 L5.77777778,19.5707778 C5.77777778,19.8871111 6.03777778,20.1485556 6.35555556,20.1485556 L25.4222222,20.1485556 C25.74,20.1485556 26,19.8856667 26,19.5707778 L26,17.3333333 L9.75288889,17.3333333 C8.09177778,17.3333333 8.05711111,16.5374444 9.45677778,16.1373333 L9.45677778,16.1373333 Z" id="Shape"></path>
            </g>
        </g>
    </g>
</svg>